<?xml version="1.0" encoding="utf-8"?>
<!-- Generator: Adobe Illustrator 25.1.0, SVG Export Plug-In . SVG Version: 6.00 Build 0)  -->
<svg version="1.1" id="Layer_1" xmlns="http://www.w3.org/2000/svg" xmlns:xlink="http://www.w3.org/1999/xlink" x="0px" y="0px"
	 viewBox="0 0 100 100" style="enable-background:new 0 0 100 100;" xml:space="preserve">
<path d="M75,50c-7.5,0-14.2,3.3-18.8,8.5l-15.9-9.8c0.8-2.2,1.3-4.6,1.3-7.1c0-1.6-0.2-3.2-0.6-4.8l21.1-9.7
	c3.1,3.7,7.6,6.2,12.8,6.2c9.2,0,16.7-7.5,16.7-16.7S84.2,0,75,0c-9.2,0-16.7,7.5-16.7,16.7c0,1,0.1,2,0.3,3l-21.1,9.7
	c-3.8-5.1-9.8-8.5-16.7-8.5C9.3,20.8,0,30.2,0,41.7s9.3,20.8,20.8,20.8c6,0,11.4-2.6,15.2-6.6l15.8,9.8c-1.2,2.9-1.8,6-1.8,9.4
	c0,13.8,11.2,25,25,25c13.8,0,25-11.2,25-25S88.8,50,75,50z"/>
</svg>
