<svg xmlns="http://www.w3.org/2000/svg" xmlns:xlink="http://www.w3.org/1999/xlink" viewBox="0 0 155 50"><defs/><path d="M48.2 36.64v-5.77h.45v2.57h3.22v-2.57h.44v5.77h-.44v-2.8h-3.22v2.8h-.45zM55.65 33.72c0-1.59.44-2.93 2.36-2.93s2.35 1.34 2.35 2.93c0 1.62-.43 3.01-2.35 3.01-1.92 0-2.36-1.39-2.36-3.01zm.47 0c0 1.31.27 2.63 1.89 2.63 1.62 0 1.88-1.32 1.88-2.63 0-1.32-.26-2.54-1.88-2.54-1.62-.01-1.89 1.22-1.89 2.54zM66.43 35.91h.02l2.15-5.03h.57v5.77h-.44v-4.9h-.03l-2.11 4.9h-.34l-2.1-4.9h-.02v4.9h-.44v-5.77h.58l2.16 5.03zM75.38 35.91h.02l2.15-5.03h.57v5.77h-.44v-4.9h-.02l-2.11 4.9h-.35l-2.1-4.9h-.02v4.9h-.44v-5.77h.58l2.16 5.03zM84.77 36.64v-5.77h.45v5.77h-.45zM88.67 36.64v-5.77h.45l3.3 4.94h.02v-4.94h.43v5.77h-.44l-3.3-4.9h-.02v4.9h-.44zM98.18 31.28v5.36h-.44v-5.36h-1.67v-.41h3.78v.41h-1.67zM106.53 31.28h-3.03v2.16h2.65v.4h-2.65v2.4h3.07v.4h-3.52v-5.77h3.48v.41zM113.42 36.64l-1.54-2.43h-1.62v2.43h-.45v-5.77h2.29c1.09 0 1.65.75 1.65 1.66 0 .85-.5 1.51-1.41 1.6l1.59 2.5h-.51zm-3.16-2.84H112c.78 0 1.31-.47 1.31-1.26 0-.73-.46-1.26-1.25-1.26h-1.8v2.52zM120.63 35.02h-2.58l-.59 1.62h-.47l2.11-5.81h.55l2.04 5.81h-.49l-.57-1.62zm-1.28-3.64l-1.2 3.26h2.38l-1.17-3.26h-.01zM126.87 30.79c.63 0 1.25.08 1.91.28l-.1.38c-.86-.21-1.29-.25-1.77-.25-1.6 0-1.93 1.2-1.93 2.52 0 1.4.32 2.61 1.93 2.61.48 0 .92-.04 1.77-.25l.1.38c-.66.19-1.28.27-1.91.27-1.92 0-2.36-1.36-2.36-3.01 0-1.59.44-2.93 2.36-2.93zM133.97 31.28v5.36h-.44v-5.36h-1.67v-.41h3.78v.41h-1.67zM138.83 36.64v-5.77h.45v5.77h-.45zM144.83 36.14l1.83-5.26h.47l-2.04 5.81h-.55l-2.11-5.81h.5l1.9 5.26zM153.77 31.28h-3.03v2.16h2.65v.4h-2.65v2.4h3.07v.4h-3.52v-5.77h3.48v.41zM47.47 24.62l.46-2.27c1.85.43 3.19.51 4.07.51.94 0 1.65-.36 1.65-1.05 0-.93-1.18-1.08-2.59-1.49-2.08-.6-3.42-1.73-3.42-3.71 0-2.4 1.99-3.35 4.36-3.35 1.36 0 2.56.17 4.21.67l-.6 2.27c-1.87-.43-2.73-.51-3.6-.51-.94 0-1.48.39-1.48 1 0 .79 1 1.03 2.49 1.37 2.08.48 3.52 1.49 3.52 3.54 0 2.58-2.01 3.69-4.53 3.69-1.36 0-2.89-.17-4.54-.67zM57.86 19.19c0-3.33 1.15-5.92 5.3-5.92s5.3 2.59 5.3 5.92-1.15 6.09-5.3 6.09-5.3-2.76-5.3-6.09zm2.89 0c0 2.23.38 3.83 2.42 3.83s2.42-1.6 2.42-3.83-.38-3.64-2.42-3.64-2.42 1.41-2.42 3.64zM75.51 13.27c1.42 0 2.64.17 4.29.67l-.6 2.27c-1.87-.43-2.59-.51-3.47-.51-1.91 0-2.64 1.27-2.64 3.5 0 2.4.74 3.67 2.64 3.67.88 0 1.6-.09 3.47-.51l.6 2.27c-1.65.5-2.87.67-4.29.67-4.15 0-5.3-2.75-5.3-6.09 0-3.35 1.15-5.94 5.3-5.94zM81.9 25.12V13.44h2.73v11.67H81.9zM93.47 22.64h-3.3l-.7 2.47h-2.88l3.64-11.76h3.35l3.62 11.76h-3.04l-.69-2.47zm-1.66-5.88l-1.08 3.61h2.2l-1.08-3.61h-.04zM101.91 13.44v9.25h5.3v2.42h-8.03V13.44h2.73zM121.21 15.86h-5.22v2.37h4.45v2.42h-4.45v4.46h-2.73V13.44h7.95v2.42zM131.74 15.86h-5.39v2.03h4.62v2.42h-4.62v2.39h5.48v2.42h-8.21V13.44h8.12v2.42zM142.73 15.86h-5.39v2.03h4.62v2.42h-4.62v2.39h5.48v2.42h-8.21V13.44h8.12v2.42zM145.25 25.12V13.44h4.46c4.1 0 5.29 2.42 5.29 5.75s-1.18 5.92-5.29 5.92h-4.46zm4.46-2.43c1.99 0 2.4-1.27 2.4-3.5s-.41-3.33-2.4-3.33h-1.73v6.83h1.73z"/><g><defs><circle id="a" cx="20" cy="25" r="20"/></defs><linearGradient id="b" x1="0" x2="40" y1="25" y2="25" gradientUnits="userSpaceOnUse"><stop offset="0" stop-color="#ff006e"/><stop offset="1" stop-color="#b82f67"/></linearGradient><use fill="url(#b)" overflow="visible" xlink:href="#a"/></g><path fill="#fff" d="M24.87 25.89c-1.73 0-3.27.76-4.32 1.97l-3.65-2.25c.19-.51.31-1.06.31-1.64 0-.38-.05-.74-.14-1.09l4.85-2.24c.7.86 1.76 1.42 2.95 1.42a3.841 3.841 0 000-7.68c-2.12 0-3.84 1.72-3.84 3.84 0 .23.03.46.07.68l-4.85 2.24a4.785 4.785 0 00-3.85-1.96c-2.65 0-4.79 2.15-4.79 4.79s2.15 4.79 4.79 4.79c1.38 0 2.61-.59 3.49-1.52l3.65 2.24a5.75 5.75 0 1011.08 2.16c0-3.17-2.58-5.75-5.75-5.75z"/></svg>
