<?xml version="1.0" encoding="utf-8"?>
<!-- Generator: Adobe Illustrator 25.1.0, SVG Export Plug-In . SVG Version: 6.00 Build 0)  -->
<svg version="1.1" id="Ebene_1" xmlns="http://www.w3.org/2000/svg" xmlns:xlink="http://www.w3.org/1999/xlink" x="0px" y="0px"
	 viewBox="0 0 155 50" style="enable-background:new 0 0 155 50;" xml:space="preserve">
<style type="text/css">
	.st0{fill:#FFFFFF;}
</style>
<g>
	<path d="M48.2,36.6v-5.8h0.4v2.6h3.2v-2.6h0.4v5.8h-0.4v-2.8h-3.2v2.8H48.2z"/>
	<path d="M55.6,33.7c0-1.6,0.4-2.9,2.4-2.9c1.9,0,2.4,1.3,2.4,2.9c0,1.6-0.4,3-2.4,3C56.1,36.7,55.6,35.3,55.6,33.7z M56.1,33.7
		c0,1.3,0.3,2.6,1.9,2.6c1.6,0,1.9-1.3,1.9-2.6c0-1.3-0.3-2.5-1.9-2.5C56.4,31.2,56.1,32.4,56.1,33.7z"/>
	<path d="M66.4,35.9L66.4,35.9l2.2-5h0.6v5.8h-0.4v-4.9h0l-2.1,4.9h-0.3l-2.1-4.9h0v4.9h-0.4v-5.8h0.6L66.4,35.9z"/>
	<path d="M75.4,35.9L75.4,35.9l2.2-5h0.6v5.8h-0.4v-4.9h0l-2.1,4.9h-0.3l-2.1-4.9h0v4.9h-0.4v-5.8h0.6L75.4,35.9z"/>
	<path d="M84.8,36.6v-5.8h0.4v5.8H84.8z"/>
	<path d="M88.7,36.6v-5.8h0.5l3.3,4.9h0v-4.9h0.4v5.8h-0.4l-3.3-4.9h0v4.9H88.7z"/>
	<path d="M98.2,31.3v5.4h-0.4v-5.4h-1.7v-0.4h3.8v0.4H98.2z"/>
	<path d="M106.5,31.3h-3v2.2h2.6v0.4h-2.6v2.4h3.1v0.4H103v-5.8h3.5V31.3z"/>
	<path d="M113.4,36.6l-1.5-2.4h-1.6v2.4h-0.5v-5.8h2.3c1.1,0,1.7,0.8,1.7,1.7c0,0.8-0.5,1.5-1.4,1.6l1.6,2.5H113.4z M110.3,33.8h1.7
		c0.8,0,1.3-0.5,1.3-1.3c0-0.7-0.5-1.3-1.2-1.3h-1.8V33.8z"/>
	<path d="M120.6,35H118l-0.6,1.6H117l2.1-5.8h0.6l2,5.8h-0.5L120.6,35z M119.3,31.4l-1.2,3.3h2.4L119.3,31.4L119.3,31.4z"/>
	<path d="M126.9,30.8c0.6,0,1.2,0.1,1.9,0.3l-0.1,0.4c-0.9-0.2-1.3-0.3-1.8-0.3c-1.6,0-1.9,1.2-1.9,2.5c0,1.4,0.3,2.6,1.9,2.6
		c0.5,0,0.9,0,1.8-0.3l0.1,0.4c-0.7,0.2-1.3,0.3-1.9,0.3c-1.9,0-2.4-1.4-2.4-3C124.5,32.1,125,30.8,126.9,30.8z"/>
	<path d="M134,31.3v5.4h-0.4v-5.4h-1.7v-0.4h3.8v0.4H134z"/>
	<path d="M138.8,36.6v-5.8h0.5v5.8H138.8z"/>
	<path d="M144.8,36.1l1.8-5.3h0.5l-2,5.8h-0.6l-2.1-5.8h0.5L144.8,36.1L144.8,36.1z"/>
	<path d="M153.8,31.3h-3v2.2h2.6v0.4h-2.6v2.4h3.1v0.4h-3.5v-5.8h3.5V31.3z"/>
</g>
<path d="M47.5,24.6l0.5-2.3c1.9,0.4,3.2,0.5,4.1,0.5c0.9,0,1.6-0.4,1.6-1c0-0.9-1.2-1.1-2.6-1.5c-2.1-0.6-3.4-1.7-3.4-3.7
	c0-2.4,2-3.3,4.4-3.3c1.4,0,2.6,0.2,4.2,0.7l-0.6,2.3c-1.9-0.4-2.7-0.5-3.6-0.5c-0.9,0-1.5,0.4-1.5,1c0,0.8,1,1,2.5,1.4
	c2.1,0.5,3.5,1.5,3.5,3.5c0,2.6-2,3.7-4.5,3.7C50.6,25.3,49.1,25.1,47.5,24.6z"/>
<path d="M57.9,19.2c0-3.3,1.1-5.9,5.3-5.9s5.3,2.6,5.3,5.9c0,3.3-1.1,6.1-5.3,6.1S57.9,22.5,57.9,19.2z M60.7,19.2
	c0,2.2,0.4,3.8,2.4,3.8s2.4-1.6,2.4-3.8c0-2.2-0.4-3.6-2.4-3.6S60.7,17,60.7,19.2z"/>
<path d="M75.4,13.3c1.4,0,2.6,0.2,4.3,0.7l-0.6,2.3c-1.9-0.4-2.6-0.5-3.5-0.5c-1.9,0-2.6,1.3-2.6,3.5c0,2.4,0.7,3.7,2.6,3.7
	c0.9,0,1.6-0.1,3.5-0.5l0.6,2.3c-1.6,0.5-2.9,0.7-4.3,0.7c-4.2,0-5.3-2.7-5.3-6.1C70.1,15.9,71.2,13.3,75.4,13.3z"/>
<path d="M81.8,25.1V13.4h2.7v11.7H81.8z"/>
<path d="M93.4,22.6h-3.3l-0.7,2.5h-2.9l3.6-11.8h3.3l3.6,11.8h-3L93.4,22.6z M91.7,16.8l-1.1,3.6h2.2L91.7,16.8L91.7,16.8z"/>
<path d="M101.8,13.4v9.3h5.3v2.4h-8V13.4H101.8z"/>
<path d="M121.1,15.9h-5.2v2.4h4.4v2.4h-4.4v4.5h-2.7V13.4h7.9V15.9z"/>
<path d="M131.6,15.9h-5.4v2h4.6v2.4h-4.6v2.4h5.5v2.4h-8.2V13.4h8.1V15.9z"/>
<path d="M142.6,15.9h-5.4v2h4.6v2.4h-4.6v2.4h5.5v2.4h-8.2V13.4h8.1V15.9z"/>
<path d="M145.1,25.1V13.4h4.5c4.1,0,5.3,2.4,5.3,5.8c0,3.3-1.2,5.9-5.3,5.9H145.1z M149.6,22.7c2,0,2.4-1.3,2.4-3.5
	c0-2.2-0.4-3.3-2.4-3.3h-1.7v6.8H149.6z"/>
<g>
	<defs>
		<circle id="SVGID_1_" cx="20" cy="25" r="20"/>
	</defs>
	<linearGradient id="SVGID_2_" gradientUnits="userSpaceOnUse" x1="1.250000e-05" y1="25" x2="40" y2="25">
		<stop  offset="0" style="stop-color:#FF006E"/>
		<stop  offset="1" style="stop-color:#B82F67"/>
	</linearGradient>
	<use xlink:href="#SVGID_1_"  style="overflow:visible;fill:url(#SVGID_2_);"/>
	<clipPath id="SVGID_3_">
		<use xlink:href="#SVGID_1_"  style="overflow:visible;"/>
	</clipPath>
</g>
<path class="st0" d="M24.9,25.9c-1.7,0-3.3,0.8-4.3,2l-3.7-2.2c0.2-0.5,0.3-1.1,0.3-1.6c0-0.4-0.1-0.7-0.1-1.1l4.9-2.2
	c0.7,0.9,1.8,1.4,3,1.4c2.1,0,3.8-1.7,3.8-3.8s-1.7-3.8-3.8-3.8c-2.1,0-3.8,1.7-3.8,3.8c0,0.2,0,0.5,0.1,0.7l-4.8,2.2
	c-0.9-1.2-2.3-2-3.8-2c-2.6,0-4.8,2.1-4.8,4.8s2.1,4.8,4.8,4.8c1.4,0,2.6-0.6,3.5-1.5l3.6,2.2c-0.3,0.7-0.4,1.4-0.4,2.2
	c0,3.2,2.6,5.8,5.8,5.8c3.2,0,5.8-2.6,5.8-5.8S28,25.9,24.9,25.9z"/>
</svg>
